{"title":"Sin.Nombre.2009.SWESUB.DVDRip.XviD.AC3.(5.1).-Zen_Bud","uid":5595719,"size":1470477288,"categoryP":"video","categoryS":"movies","magnet":"?xt=urn:btih:a31b4e0170584705dbca9c60121a55b65314c033&amp;dn=Sin.Nombre.2009.SWESUB.DVDRip.XviD.AC3.%285.1%29.-Zen_Bud&amp;tr=udp%3A%2F%2Ftracker.openbittorrent.com%3A80&amp;tr=udp%3A%2F%2Fopen.demonii.com%3A1337&amp;tr=udp%3A%2F%2Ftracker.coppersurfer.tk%3A6969&amp;tr=udp%3A%2F%2Fexodus.desync.com%3A6969","seeders":2,"leechers":0,"uploader":"Zen_Bud","files":-1,"time":1275031687,"description":"General\nComplete name                    : Sin.Nombre.avi\nFormat                           : AVI\nFile size                        : 1.37 GiB\nDuration                         : 1h 31mn\nOverall bit rate                 : 2 135 Kbps\n\nVideo\nID                               : 0\nFormat                           : MPEG-4 Visual\nCodec ID/Hint                    : XviD\nDuration                         : 1h 31mn\nBit rate                         : 1 676 Kbps\nWidth                            : 720 pixels\nHeight                           : 438 pixels\nDisplay aspect ratio             : 2.35:1\nChroma subsampling               : 4:2:0\nBit depth                        : 8 bits\nScan type                        : Progressive\nBits/(Pixel*Frame)               : 0.213\nStream size                      : 1.08 GiB (79%)\nWriting library                  : XviD 1.1.2 (UTC 2006-11-01)\n\nAudio\nID                               : 1\nFormat                           : AC-3\nCodec ID                         : 2000\nDuration                         : 1h 31mn\nBit rate                         : 448 Kbps\nChannel(s)                       : 6 channels\nChannel positions                : Front: L C R, Side: L R, LFE\nSampling rate                    : 48.0 KHz\nStream size                      : 294 MiB (21%)\n\n\n","torrent":{"xt":"urn:btih:a31b4e0170584705dbca9c60121a55b65314c033","amp;dn":"Sin.Nombre.2009.SWESUB.DVDRip.XviD.AC3.%285.1%29.-Zen_Bud","amp;tr":["udp%3A%2F%2Ftracker.openbittorrent.com%3A80","udp%3A%2F%2Fopen.demonii.com%3A1337","udp%3A%2F%2Ftracker.coppersurfer.tk%3A6969","udp%3A%2F%2Fexodus.desync.com%3A6969"],"infoHash":"a31b4e0170584705dbca9c60121a55b65314c033","infoHashBuffer":{"type":"Buffer","data":[163,27,78,1,112,88,71,5,219,202,156,96,18,26,85,182,83,20,192,51]},"announce":[],"urlList":[]}}